<?xml version="1.0" standalone="no"?>
<!DOCTYPE svg PUBLIC "-//W3C//DTD SVG 20010904//EN"
 "http://www.w3.org/TR/2001/REC-SVG-20010904/DTD/svg10.dtd">
<svg version="1.0" xmlns="http://www.w3.org/2000/svg"
 width="640.000000pt" height="1280.000000pt" viewBox="0 0 640.000000 1280.000000"
 preserveAspectRatio="xMidYMid meet">
<metadata>
Created by potrace 1.15, written by Peter Selinger 2001-2017
</metadata>
<g transform="translate(0.000000,1280.000000) scale(0.100000,-0.100000)"
fill="orange" stroke="none">
<path d="M3169 12771 c-24 -15 -55 -40 -68 -54 -18 -20 -28 -24 -37 -16 -10 8
-15 4 -19 -18 -10 -46 -20 -58 -52 -61 -28 -3 -31 0 -36 33 -8 49 -44 122 -64
129 -21 8 -78 -37 -120 -95 -18 -24 -39 -52 -47 -61 -19 -21 -62 -195 -78
-313 -7 -55 -12 -232 -13 -460 -1 -283 -5 -397 -18 -485 -9 -63 -21 -185 -27
-270 -6 -85 -12 -162 -13 -170 -2 -8 -8 192 -15 445 -20 738 -31 953 -48 987
-8 16 -31 47 -51 69 -76 84 -139 32 -226 -191 -67 -170 -125 -442 -192 -889
-9 -58 -17 -107 -19 -109 -6 -6 -128 219 -201 371 -38 80 -73 146 -76 147 -3
0 -14 -65 -25 -145 -10 -80 -21 -145 -24 -145 -3 0 -57 33 -120 74 -63 41
-117 72 -119 70 -2 -2 43 -88 99 -191 l103 -188 1 -76 c1 -75 3 -80 83 -240
160 -320 287 -666 448 -1225 l65 -225 10 -227 c32 -736 140 -1539 270 -2007
l39 -140 11 -330 c6 -181 13 -332 16 -336 2 -4 -22 -15 -53 -24 -245 -71 -437
-219 -532 -411 -51 -102 -61 -163 -61 -358 l0 -177 -94 -282 c-146 -441 -247
-719 -646 -1767 -122 -322 -294 -774 -382 -1005 -499 -1313 -718 -1999 -721
-2260 -2 -94 9 -119 59 -135 207 -69 723 398 1525 1380 524 641 1209 1553
1820 2425 432 615 476 688 565 931 245 677 84 1242 -439 1534 l-57 32 32 22
c47 31 67 73 83 176 18 110 35 154 67 171 61 32 502 312 748 474 846 559 1367
1000 1542 1305 38 65 68 165 68 225 0 41 -5 56 -23 73 -79 75 -355 -50 -799
-360 -54 -37 -98 -65 -98 -62 0 3 110 117 243 253 444 448 600 636 657 787 27
73 26 98 -7 124 -133 106 -771 -257 -1329 -756 -236 -211 -529 -524 -698 -747
-53 -69 -79 -98 -60 -64 38 65 209 315 274 402 332 440 618 744 1436 1526 368
352 535 518 543 540 26 74 -4 162 -67 201 -47 29 -126 30 -169 3 -39 -25
-1189 -1129 -1244 -1196 -23 -27 -44 -47 -46 -45 -6 5 360 583 509 805 96 141
109 213 52 281 -25 29 -25 30 -7 54 10 13 79 100 154 192 287 358 665 891 690
974 34 113 -84 231 -200 200 -41 -11 -203 -124 -336 -235 -204 -169 -442 -412
-623 -635 -115 -141 -117 -143 -94 -90 156 363 376 818 469 971 77 127 23 256
-113 267 -86 7 -116 -17 -196 -156 -175 -308 -371 -703 -547 -1102 l-73 -166
-102 -70 c-62 -44 -103 -67 -107 -60 -3 6 -11 36 -18 67 l-12 55 76 169 c135
299 184 470 185 633 0 85 -2 95 -25 117 -31 32 -49 31 -121 -5 -105 -52 -306
-245 -532 -512 -36 -42 -67 -76 -68 -75 -1 1 25 83 58 182 53 162 149 505 166
595 4 19 7 87 7 151 0 101 -3 120 -19 138 -48 53 -147 2 -295 -155 -155 -164
-311 -422 -422 -696 -23 -59 -44 -106 -45 -105 -2 3 32 442 46 572 19 186 69
537 100 703 33 175 38 278 15 322 -30 57 -78 65 -146 21z m-888 -1976 c-6 -66
-7 -68 -16 -35 -9 38 -9 49 6 88 15 38 17 24 10 -53z m799 -4689 c281 -64 534
-192 699 -354 100 -98 131 -166 131 -289 0 -202 -73 -430 -252 -788 -387 -774
-1302 -2039 -2367 -3275 -337 -391 -811 -905 -811 -880 0 18 195 592 259 761
109 290 430 1077 447 1098 1 2 29 -13 61 -32 125 -76 339 -120 409 -84 48 25
91 80 99 126 5 33 2 51 -17 89 -30 61 -71 88 -147 95 -86 7 -261 94 -261 129
0 14 129 311 139 321 5 5 56 -2 118 -16 68 -17 180 -32 305 -42 221 -18 241
-15 291 44 52 62 55 143 6 205 -35 45 -74 57 -223 72 -232 23 -371 49 -362 68
2 6 35 85 71 176 37 91 70 169 74 173 4 4 34 -8 67 -28 89 -54 139 -65 326
-72 145 -5 173 -4 213 11 122 47 141 212 32 284 -38 26 -47 27 -206 32 -177 6
-181 7 -263 68 l-46 35 15 41 c8 23 41 118 74 211 33 94 61 176 64 182 3 9 33
-6 90 -43 105 -68 249 -137 335 -160 171 -45 391 -3 493 94 75 71 52 203 -42
252 -55 28 -101 25 -171 -10 -42 -21 -74 -30 -107 -30 -102 0 -250 68 -429
196 l-62 43 25 83 c13 46 40 139 59 207 18 68 36 126 39 129 2 3 32 -12 65
-31 68 -41 170 -87 245 -110 117 -37 423 -83 475 -72 37 8 86 48 105 86 22 41
19 117 -5 157 -30 49 -70 68 -173 81 -280 36 -382 69 -558 182 l-76 49 29 132
c16 73 30 159 32 190 2 52 6 62 39 96 96 98 221 141 417 141 97 1 149 -5 230
-23z"/>
</g>
</svg>
